<svg width="164" height="212" viewBox="0 0 164 212" fill="none" xmlns="http://www.w3.org/2000/svg">
<rect x="11.0662" y="12.4409" width="141.868" height="141.868" rx="70.9338" stroke="#392D63" stroke-width="1.37469"/>
<rect x="23.8507" y="25.2254" width="116.298" height="116.298" rx="58.1492" fill="url(#paint0_linear_68_726)" stroke="url(#paint1_linear_68_726)" stroke-width="1.37469"/>
<rect x="0.687343" y="0.687343" width="162.625" height="162.625" rx="81.3127" stroke="black" stroke-width="1.37469"/>
<g clip-path="url(#clip0_68_726)">
<path d="M91.5023 79.547C91.2366 79.2811 90.921 79.0701 90.5738 78.9261C90.2265 78.7821 89.8543 78.708 89.4783 78.7078C89.1024 78.7077 88.7301 78.7816 88.3828 78.9253C88.0354 79.0691 87.7197 79.2798 87.4538 79.5456C87.1879 79.8113 86.9769 80.1268 86.8329 80.4741C86.6889 80.8214 86.6148 81.1936 86.6146 81.5695C86.6145 81.9455 86.6884 82.3177 86.8321 82.6651C86.9759 83.0125 87.1866 83.3281 87.4524 83.5941C87.989 84.1311 88.7171 84.433 89.4763 84.4332C90.2356 84.4335 90.9638 84.1322 91.5009 83.5955C92.0379 83.0588 92.3398 82.3308 92.34 81.5715C92.3403 80.8123 92.039 80.0841 91.5023 79.547Z" fill="white"/>
<path d="M93.5258 73.4765C93.7899 73.2032 94.1057 72.9851 94.4549 72.8351C94.8041 72.6851 95.1796 72.6062 95.5597 72.6029C95.9397 72.5996 96.3166 72.672 96.6683 72.8159C97.0201 72.9598 97.3396 73.1723 97.6084 73.4411C97.8771 73.7098 98.0896 74.0293 98.2335 74.3811C98.3774 74.7328 98.4499 75.1097 98.4466 75.4898C98.4433 75.8698 98.3643 76.2454 98.2143 76.5945C98.0643 76.9437 97.8463 77.2596 97.5729 77.5236C97.0331 78.0449 96.3101 78.3334 95.5597 78.3269C94.8092 78.3204 94.0914 78.0194 93.5607 77.4887C93.0301 76.9581 92.729 76.2402 92.7225 75.4898C92.716 74.7393 93.0045 74.0163 93.5258 73.4765Z" fill="white"/>
<path d="M103.643 79.547C103.379 79.2737 103.064 79.0556 102.714 78.9056C102.365 78.7556 101.99 78.6767 101.61 78.6734C101.23 78.6701 100.853 78.7425 100.501 78.8864C100.149 79.0303 99.8296 79.2428 99.5609 79.5115C99.2922 79.7803 99.0796 80.0998 98.9357 80.4516C98.7918 80.8033 98.7194 81.1802 98.7227 81.5602C98.726 81.9403 98.805 82.3158 98.955 82.665C99.105 83.0142 99.323 83.3301 99.5964 83.5941C100.136 84.1154 100.859 84.4039 101.61 84.3974C102.36 84.3909 103.078 84.0899 103.609 83.5592C104.139 83.0285 104.44 82.3107 104.447 81.5602C104.453 80.8098 104.165 80.0868 103.643 79.547Z" fill="white"/>
<path d="M93.5257 85.6178C93.7916 85.3521 94.1073 85.1414 94.4547 84.9976C94.802 84.8539 95.1743 84.78 95.5502 84.7801C95.9262 84.7802 96.2984 84.8544 96.6457 84.9984C96.9929 85.1424 97.3084 85.3534 97.5742 85.6193C97.8399 85.8852 98.0507 86.2009 98.1944 86.5482C98.3382 86.8956 98.4121 87.2679 98.4119 87.6438C98.4118 88.0197 98.3376 88.392 98.1936 88.7392C98.0497 89.0865 97.8387 89.402 97.5728 89.6678C97.0357 90.2044 96.3075 90.5058 95.5482 90.5055C94.789 90.5052 94.0609 90.2034 93.5243 89.6663C92.9876 89.1293 92.6863 88.401 92.6865 87.6418C92.6868 86.8825 92.9887 86.1545 93.5257 85.6178Z" fill="white"/>
<path d="M64.3979 84.4328H58.6736V78.7085H64.3979V72.9843H70.1222V78.7085H75.8464V84.4328H70.1222V90.157H64.3979V84.4328Z" fill="white"/>
<path fill-rule="evenodd" clip-rule="evenodd" d="M67.26 61.5358C61.9464 61.5358 56.8505 63.6466 53.0932 67.4039C49.3359 71.1611 47.2251 76.2571 47.2251 81.5707C47.2251 86.8843 49.3359 91.9802 53.0932 95.7375C56.8505 99.4948 61.9464 101.606 67.26 101.606H95.8813C98.5123 101.606 101.118 101.087 103.548 100.081C105.979 99.0737 108.188 97.5979 110.048 95.7375C111.909 93.8771 113.384 91.6684 114.391 89.2377C115.398 86.8069 115.916 84.2017 115.916 81.5707C115.916 78.9396 115.398 76.3344 114.391 73.9036C113.384 71.4729 111.909 69.2643 110.048 67.4039C108.188 65.5434 105.979 64.0677 103.548 63.0608C101.118 62.054 98.5123 61.5358 95.8813 61.5358H67.26ZM95.8813 67.26H67.26C63.4646 67.26 59.8246 68.7677 57.1408 71.4515C54.4571 74.1353 52.9494 77.7752 52.9494 81.5707C52.9494 85.3661 54.4571 89.0061 57.1408 91.6898C59.8246 94.3736 63.4646 95.8813 67.26 95.8813H95.8813C99.6767 95.8813 103.317 94.3736 106 91.6898C108.684 89.0061 110.192 85.3661 110.192 81.5707C110.192 77.7752 108.684 74.1353 106 71.4515C103.317 68.7677 99.6767 67.26 95.8813 67.26Z" fill="white"/>
</g>
<path d="M32.4414 193.35C32.4414 190.396 33.1328 188.041 34.5156 186.283C35.9102 184.514 37.7559 183.629 40.0527 183.629C42.2207 183.629 43.9258 184.385 45.168 185.896L45.3613 183.98H49.2109V202.42C49.2109 204.916 48.4316 206.885 46.873 208.326C45.3262 209.768 43.2344 210.488 40.5977 210.488C39.2031 210.488 37.8379 210.195 36.502 209.609C35.1777 209.035 34.1699 208.279 33.4785 207.342L35.5 204.775C36.8125 206.334 38.4297 207.113 40.3516 207.113C41.7695 207.113 42.8887 206.727 43.709 205.953C44.5293 205.191 44.9395 204.066 44.9395 202.578V201.295C43.709 202.666 42.0684 203.352 40.0176 203.352C37.791 203.352 35.9688 202.467 34.5508 200.697C33.1445 198.928 32.4414 196.479 32.4414 193.35ZM36.6953 193.719C36.6953 195.629 37.082 197.135 37.8555 198.236C38.6406 199.326 39.7246 199.871 41.1074 199.871C42.8301 199.871 44.1074 199.133 44.9395 197.656V189.289C44.1309 187.848 42.8652 187.127 41.1426 187.127C39.7363 187.127 38.6406 187.684 37.8555 188.797C37.082 189.91 36.6953 191.551 36.6953 193.719ZM72.5195 180.992H64.5391V203H60.127V180.992H52.2168V177.406H72.5195V180.992ZM80.0254 203H75.7539V183.98H80.0254V203ZM75.4902 179.041C75.4902 178.385 75.6953 177.84 76.1055 177.406C76.5273 176.973 77.125 176.756 77.8984 176.756C78.6719 176.756 79.2695 176.973 79.6914 177.406C80.1133 177.84 80.3242 178.385 80.3242 179.041C80.3242 179.686 80.1133 180.225 79.6914 180.658C79.2695 181.08 78.6719 181.291 77.8984 181.291C77.125 181.291 76.5273 181.08 76.1055 180.658C75.6953 180.225 75.4902 179.686 75.4902 179.041ZM88.709 183.98L88.832 185.967C90.168 184.408 91.9961 183.629 94.3164 183.629C96.8594 183.629 98.5996 184.602 99.5371 186.547C100.92 184.602 102.865 183.629 105.373 183.629C107.471 183.629 109.029 184.209 110.049 185.369C111.08 186.529 111.607 188.24 111.631 190.502V203H107.359V190.625C107.359 189.418 107.096 188.533 106.568 187.971C106.041 187.408 105.168 187.127 103.949 187.127C102.977 187.127 102.18 187.391 101.559 187.918C100.949 188.434 100.521 189.113 100.275 189.957L100.293 203H96.0215V190.484C95.9629 188.246 94.8203 187.127 92.5938 187.127C90.8828 187.127 89.6699 187.824 88.9551 189.219V203H84.6836V183.98H88.709ZM124.393 203.352C121.686 203.352 119.488 202.502 117.801 200.803C116.125 199.092 115.287 196.818 115.287 193.982V193.455C115.287 191.557 115.65 189.863 116.377 188.375C117.115 186.875 118.146 185.709 119.471 184.877C120.795 184.045 122.271 183.629 123.9 183.629C126.49 183.629 128.488 184.455 129.895 186.107C131.312 187.76 132.021 190.098 132.021 193.121V194.844H119.594C119.723 196.414 120.244 197.656 121.158 198.57C122.084 199.484 123.244 199.941 124.639 199.941C126.596 199.941 128.189 199.15 129.42 197.568L131.723 199.766C130.961 200.902 129.941 201.787 128.664 202.42C127.398 203.041 125.975 203.352 124.393 203.352ZM123.883 187.057C122.711 187.057 121.762 187.467 121.035 188.287C120.32 189.107 119.863 190.25 119.664 191.715H127.803V191.398C127.709 189.969 127.328 188.891 126.66 188.164C125.992 187.426 125.066 187.057 123.883 187.057Z" fill="white"/>
<defs>
<linearGradient id="paint0_linear_68_726" x1="17.8725" y1="150.892" x2="225.304" y2="128.847" gradientUnits="userSpaceOnUse">
<stop stop-color="#4316DB"/>
<stop offset="0.444967" stop-color="#461BD6" stop-opacity="0.445656"/>
<stop offset="1" stop-color="#3A00FF" stop-opacity="0"/>
</linearGradient>
<linearGradient id="paint1_linear_68_726" x1="17.8725" y1="150.892" x2="225.304" y2="128.847" gradientUnits="userSpaceOnUse">
<stop stop-color="#4316DB"/>
<stop offset="0.444967" stop-color="#461BD6" stop-opacity="0.445656"/>
<stop offset="1" stop-color="#3A00FF" stop-opacity="0"/>
</linearGradient>
<clipPath id="clip0_68_726">
<rect width="68.6911" height="68.6911" fill="white" transform="translate(47.2252 47.2251)"/>
</clipPath>
</defs>
</svg>
